<svg width="1440" height="1000" viewBox="0 0 1440 1000" fill="none" xmlns="http://www.w3.org/2000/svg">
<g filter="url(#filter0_d_227_12)">
<path fill-rule="evenodd" clip-rule="evenodd" d="M0 662.261L76.7083 696.661C153.417 729.496 306.833 796.731 460.25 796.731C613.667 796.731 767.083 729.496 920.5 651.316C1073.92 571.572 1227.33 482.447 1380.75 471.502C1534.17 458.993 1687.58 527.791 1764.29 560.627L1841 595.026V1000H1764.29C1687.58 1000 1534.17 1000 1380.75 1000C1227.33 1000 1073.92 1000 920.5 1000C767.083 1000 613.667 1000 460.25 1000C306.833 1000 153.417 1000 76.7083 1000H0V662.261Z" fill="#5C7AEA"/>
<path fill-rule="evenodd" clip-rule="evenodd" d="M0 662.261L76.7083 696.661C153.417 729.496 306.833 796.731 460.25 796.731C613.667 796.731 767.083 729.496 920.5 651.316C1073.92 571.572 1227.33 482.447 1380.75 471.502C1534.17 458.993 1687.58 527.791 1764.29 560.627L1841 595.026V1000H1764.29C1687.58 1000 1534.17 1000 1380.75 1000C1227.33 1000 1073.92 1000 920.5 1000C767.083 1000 613.667 1000 460.25 1000C306.833 1000 153.417 1000 76.7083 1000H0V662.261Z"/>
</g>
<rect x="835.854" y="66" width="30.4645" height="236.21" rx="15.2322" transform="rotate(36.5 835.854 66)" fill="#98AAEE"/>
<rect x="1515.96" y="-329.078" width="73.582" height="654" rx="36.791" transform="rotate(37.5 1515.96 -329.078)" fill="#5C7AEA"/>
<path d="M1015.97 33.3404C1017.75 30.9432 1021.13 30.4379 1023.52 32.2117V32.2117C1025.92 33.9855 1026.43 37.3666 1024.65 39.7638L975.892 105.66C974.119 108.057 970.738 108.562 968.34 106.788V106.788C965.943 105.015 965.438 101.633 967.212 99.2362L1015.97 33.3404Z" fill="#98AAEE"/>
<path d="M1416.97 -7.65964C1418.75 -10.0568 1422.13 -10.5621 1424.52 -8.7883V-8.7883C1426.92 -7.01453 1427.43 -3.63335 1425.65 -1.23624L1376.89 64.6596C1375.12 67.0568 1371.74 67.5621 1369.34 65.7883V65.7883C1366.94 64.0145 1366.44 60.6334 1368.21 58.2362L1416.97 -7.65964Z" fill="#98AAEE"/>
<rect x="173.611" y="-228" width="168" height="654" rx="76" transform="rotate(42 173.611 -228)" fill="#5C7AEA"/>
<defs>
<filter id="filter0_d_227_12" x="-8" y="464" width="1861" height="550" filterUnits="userSpaceOnUse" color-interpolation-filters="sRGB">
<feFlood flood-opacity="0" result="BackgroundImageFix"/>
<feColorMatrix in="SourceAlpha" type="matrix" values="0 0 0 0 0 0 0 0 0 0 0 0 0 0 0 0 0 0 127 0" result="hardAlpha"/>
<feOffset dx="2" dy="4"/>
<feGaussianBlur stdDeviation="5"/>
<feComposite in2="hardAlpha" operator="out"/>
<feColorMatrix type="matrix" values="0 0 0 0 0 0 0 0 0 0 0 0 0 0 0 0 0 0 0.25 0"/>
<feBlend mode="normal" in2="BackgroundImageFix" result="effect1_dropShadow_227_12"/>
<feBlend mode="normal" in="SourceGraphic" in2="effect1_dropShadow_227_12" result="shape"/>
</filter>
</defs>
</svg>
