<svg width="29" height="30" viewBox="0 0 29 30" fill="none" xmlns="http://www.w3.org/2000/svg">
<path d="M27.7005 18.1952C25.8222 26.0444 18.1918 30.8202 10.658 28.8636C3.12423 26.9071 -1.45725 18.9558 0.421107 11.1082C2.29946 3.26062 9.92832 -1.51834 17.4585 0.438224C24.9887 2.39479 29.5784 10.3455 27.7005 18.1952Z" fill="#F9F8F8"/>
<path d="M19.1532 18.5789C18.9135 18.3613 18.6471 17.8876 18.3539 17.1581L14.708 8.0807H14.4375L10.753 17.0617C10.4336 17.8521 10.1434 18.3751 9.88242 18.6309C9.75327 18.7594 9.46987 18.8635 9.03223 18.9433V19.2411H12.3308V18.9449C11.8264 18.9074 11.4981 18.8257 11.3459 18.6997C11.1933 18.5732 11.1181 18.4274 11.1181 18.2608C11.1181 18.0525 11.2057 17.736 11.3809 17.3111L12.0928 15.5888L12.3384 14.9932H12.3323L14.1537 10.5834L15.9304 14.9932H15.9096L16.147 15.5888L16.7801 17.1581C16.9865 17.6679 17.0896 18.0409 17.0893 18.2769C17.0892 18.3644 17.0692 18.4508 17.0309 18.529C16.9926 18.6073 16.937 18.6753 16.8686 18.7278C16.7221 18.8513 16.4404 18.9237 16.0235 18.9449V19.2427H20.1539V18.9449C19.7264 18.9178 19.3929 18.7958 19.1532 18.5789Z" fill="#5C7AEA"/>
<path d="M15.4683 17.3292L15.993 17.7926L18.566 14.6297L18.0412 14.1664L15.4683 17.3292Z" fill="#5C7AEA"/>
<path d="M14.8379 15.8955L15.3627 16.3589L17.9357 13.1955L17.4109 12.7321L14.8379 15.8955Z" fill="#5C7AEA"/>
<path d="M14.1053 3.38962C16.6787 3.39235 19.172 4.30559 21.1633 5.9747C23.1545 7.64381 24.5212 9.96621 25.0319 12.5487C25.5427 15.1312 25.1661 17.815 23.9659 20.1458C22.7658 22.4767 20.8158 24.3112 18.4462 25.3388C15.7238 26.495 12.6652 26.5016 9.93809 25.357C7.21098 24.2124 5.03686 22.0096 3.89032 19.2295C2.74379 16.4495 2.71796 13.3179 3.81848 10.5184C4.91899 7.71884 7.05647 5.47879 9.76431 4.2872C11.1375 3.69184 12.614 3.38655 14.1053 3.38962ZM14.1053 2.66072C7.55239 2.66072 2.24023 8.10142 2.24023 14.813C2.24023 21.5246 7.55239 26.9653 14.1053 26.9653C20.6581 26.9653 25.9703 21.5272 25.9703 14.8109C25.9703 8.09465 20.6581 2.66072 14.1053 2.66072Z" fill="#5C7AEA"/>
</svg>
