<svg width="35" height="36" viewBox="0 0 35 36" fill="none" xmlns="http://www.w3.org/2000/svg">
<path d="M34.4767 22.1547C32.1389 31.712 22.6419 37.5271 13.2652 35.1448C3.8885 32.7624 -1.81373 23.0809 0.52412 13.5255C2.86197 3.97017 12.357 -1.84876 21.7293 0.533587C31.1016 2.91593 36.814 12.5968 34.4767 22.1547Z" fill="#5C7AEA"/>
<path d="M23.838 22.622C23.5397 22.357 23.2081 21.7803 22.8431 20.892L18.3054 9.83923H17.9687L13.3829 20.7747C12.9854 21.737 12.6243 22.3739 12.2994 22.6854C12.1386 22.8418 11.7859 22.9685 11.2412 23.0658V23.4284H15.3467V23.0677C14.7189 23.022 14.3103 22.9225 14.1208 22.7691C13.9309 22.615 13.8373 22.4375 13.8373 22.2347C13.8373 21.9811 13.9463 21.5956 14.1645 21.0783L15.0505 18.9813L15.3562 18.2561H15.3486L17.6156 12.8866L19.8268 18.2561H19.8009L20.0965 18.9813L20.8844 20.892C21.1413 21.5128 21.2696 21.9669 21.2692 22.2543C21.2691 22.3609 21.2442 22.466 21.1965 22.5613C21.1489 22.6566 21.0797 22.7394 20.9945 22.8033C20.8122 22.9538 20.4616 23.0419 19.9427 23.0677V23.4303H25.0835V23.0677C24.5515 23.0347 24.1363 22.8861 23.838 22.622Z" fill="white"/>
<path d="M19.252 21.1004L19.9051 21.6646L23.1074 17.8135L22.4543 17.2493L19.252 21.1004Z" fill="white"/>
<path d="M18.4673 19.3546L19.1204 19.9188L22.3229 16.067L21.6697 15.5028L18.4673 19.3546Z" fill="white"/>
<path d="M17.5556 4.12738C20.7585 4.13072 23.8618 5.24269 26.3402 7.27501C28.8185 9.30734 30.5195 12.1351 31.1552 15.2796C31.7909 18.4241 31.3222 21.692 29.8284 24.53C28.3347 27.368 25.9077 29.6018 22.9585 30.853C19.5701 32.2609 15.7633 32.2688 12.369 30.8752C8.9748 29.4815 6.26883 26.7994 4.84183 23.4143C3.41482 20.0292 3.38267 16.2162 4.7524 12.8074C6.12213 9.39871 8.7825 6.67119 12.1527 5.2203C13.8619 4.49538 15.6996 4.12364 17.5556 4.12738ZM17.5556 3.23987C9.39973 3.23987 2.78809 9.86454 2.78809 18.0367C2.78809 26.2088 9.39973 32.8335 17.5556 32.8335C25.7115 32.8335 32.3231 26.2119 32.3231 18.0341C32.3231 9.8563 25.7115 3.23987 17.5556 3.23987Z" fill="white"/>
</svg>
