<svg width="35" height="32" viewBox="0 0 35 32" fill="none" xmlns="http://www.w3.org/2000/svg">
<path d="M34.2389 15.768C34.2389 24.4299 26.6262 31.4518 17.2354 31.4518C7.84465 31.4518 0.231934 24.4299 0.231934 15.768C0.231934 7.10612 7.84465 0.084259 17.2354 0.084259C26.6262 0.084259 34.2389 7.10612 34.2389 15.768Z" fill="#A2ECA0"/>
<path d="M14.789 22.5477L23.0659 14.9132L19.1346 11.2869L10.8577 18.9214C10.7437 19.0267 10.6628 19.1584 10.6234 19.3026L9.70605 23.6099L14.3749 22.7637C14.5316 22.7276 14.675 22.6528 14.789 22.5477ZM25.7379 12.4486C26.0718 12.1405 26.2594 11.7226 26.2594 11.2869C26.2594 10.8513 26.0718 10.4334 25.7379 10.1253L24.3253 8.82235C23.9913 8.51433 23.5383 8.34129 23.0659 8.34129C22.5936 8.34129 22.1406 8.51433 21.8065 8.82235L20.394 10.1253L24.3253 13.7515L25.7379 12.4486Z" fill="#F9F8F8"/>
</svg>
