<svg width="238" height="56" viewBox="0 0 238 56" fill="none" xmlns="http://www.w3.org/2000/svg">
<path d="M206.588 36.8333C210.907 36.8333 215.279 35.3448 215.279 32.5C215.279 29.6552 210.907 28.1667 206.588 28.1667C202.268 28.1667 197.897 29.6552 197.897 32.5C197.897 35.3448 202.268 36.8333 206.588 36.8333Z" fill="#FFC226"/>
<path d="M197.897 36.8333C197.897 39.6782 202.268 41.1667 206.588 41.1667C210.907 41.1667 215.279 39.6782 215.279 36.8333V34.6667C215.279 37.5115 210.907 39 206.588 39C202.268 39 197.897 37.5115 197.897 34.6667V36.8333Z" fill="#FFC226"/>
<path d="M197.897 41.1667C197.897 44.0115 202.268 45.5 206.588 45.5C210.907 45.5 215.279 44.0115 215.279 41.1667V39C215.279 41.8448 210.907 43.3333 206.588 43.3333C202.268 43.3333 197.897 41.8448 197.897 39V41.1667Z" fill="#FFC226"/>
<path d="M197.897 45.5C197.897 48.3448 202.268 49.8333 206.588 49.8333C210.907 49.8333 215.279 48.3448 215.279 45.5V43.3333C215.279 46.1782 210.907 47.6667 206.588 47.6667C202.268 47.6667 197.897 46.1782 197.897 43.3333V45.5Z" fill="#FFC226"/>
<path d="M42.7149 40.384C42.9069 40.7893 43.0029 41.184 43.0029 41.568C43.0029 42.272 42.7149 42.8693 42.1389 43.36C41.5842 43.8507 40.9442 44.096 40.2189 44.096C39.7282 44.096 39.2802 43.968 38.8749 43.712C38.4696 43.456 38.1496 43.072 37.9149 42.56L36.4749 39.328H26.1069L24.6349 42.56C24.4002 43.072 24.0696 43.456 23.6429 43.712C23.2376 43.968 22.7896 44.096 22.2989 44.096C21.5736 44.096 20.9122 43.8507 20.3149 43.36C19.7389 42.8693 19.4509 42.272 19.4509 41.568C19.4509 41.184 19.5469 40.7893 19.7389 40.384L28.1869 23.04C28.4642 22.464 28.8696 22.0267 29.4029 21.728C29.9576 21.408 30.5656 21.248 31.2269 21.248C31.8669 21.248 32.4642 21.408 33.0189 21.728C33.5736 22.0267 33.9896 22.464 34.2669 23.04L42.7149 40.384ZM28.0909 34.912H34.4909L31.2909 27.776L28.0909 34.912ZM67.0586 40.384C67.2506 40.7893 67.3466 41.184 67.3466 41.568C67.3466 42.272 67.0586 42.8693 66.4826 43.36C65.928 43.8507 65.288 44.096 64.5626 44.096C64.072 44.096 63.624 43.968 63.2186 43.712C62.8133 43.456 62.4933 43.072 62.2586 42.56L60.8186 39.328H50.4506L48.9786 42.56C48.744 43.072 48.4133 43.456 47.9866 43.712C47.5813 43.968 47.1333 44.096 46.6426 44.096C45.9173 44.096 45.256 43.8507 44.6586 43.36C44.0826 42.8693 43.7946 42.272 43.7946 41.568C43.7946 41.184 43.8906 40.7893 44.0826 40.384L52.5306 23.04C52.808 22.464 53.2133 22.0267 53.7466 21.728C54.3013 21.408 54.9093 21.248 55.5706 21.248C56.2106 21.248 56.808 21.408 57.3626 21.728C57.9173 22.0267 58.3333 22.464 58.6106 23.04L67.0586 40.384ZM52.4346 34.912H58.8346L55.6346 27.776L52.4346 34.912ZM72.7144 44.192C71.8184 44.192 71.1037 43.936 70.5704 43.424C70.0584 42.8907 69.8024 42.176 69.8024 41.28V24.16C69.8024 23.2853 70.0371 22.6133 70.5064 22.144C70.9757 21.6747 71.6477 21.44 72.5224 21.44H80.7144C83.2104 21.44 85.1517 22.08 86.5384 23.36C87.9251 24.6187 88.6184 26.3787 88.6184 28.64C88.6184 30.88 87.9144 32.64 86.5064 33.92C85.1197 35.2 83.1891 35.84 80.7144 35.84H75.6904V41.28C75.6904 42.176 75.4237 42.8907 74.8904 43.424C74.3571 43.936 73.6317 44.192 72.7144 44.192ZM79.9144 31.424C81.0024 31.424 81.8024 31.2 82.3144 30.752C82.8477 30.304 83.1144 29.6107 83.1144 28.672C83.1144 26.816 82.0477 25.888 79.9144 25.888H75.6904V31.424H79.9144ZM111.491 21.28C112.301 21.28 112.963 21.5466 113.475 22.08C113.987 22.6133 114.243 23.3067 114.243 24.16V41.568C114.243 42.3787 114.008 43.0187 113.539 43.488C113.069 43.9573 112.451 44.192 111.683 44.192C110.936 44.192 110.317 43.9573 109.827 43.488C109.357 43.0187 109.123 42.3787 109.123 41.568V32.16L105.475 38.88C105.112 39.5627 104.728 40.0533 104.323 40.352C103.917 40.6293 103.437 40.768 102.883 40.768C102.328 40.768 101.848 40.6293 101.443 40.352C101.037 40.0533 100.653 39.5627 100.291 38.88L96.6746 32.352V41.568C96.6746 42.3573 96.4293 42.9973 95.9386 43.488C95.4693 43.9573 94.8506 44.192 94.0826 44.192C93.336 44.192 92.7173 43.9573 92.2266 43.488C91.7573 43.0187 91.5226 42.3787 91.5226 41.568V24.16C91.5226 23.3067 91.7786 22.6133 92.2906 22.08C92.824 21.5466 93.496 21.28 94.3066 21.28C94.8826 21.28 95.4053 21.4507 95.8746 21.792C96.344 22.112 96.7386 22.5813 97.0586 23.2L102.947 34.272L108.803 23.2C109.464 21.92 110.36 21.28 111.491 21.28ZM129.864 48.2187H128.286V21.25H129.864V48.2187ZM143.133 42.7207C143.778 42.7207 144.341 42.5254 144.823 42.1348C145.305 41.7441 145.571 41.2558 145.624 40.6699H147.333C147.3 41.2754 147.092 41.8515 146.708 42.3984C146.323 42.9453 145.809 43.3815 145.165 43.707C144.527 44.0325 143.849 44.1953 143.133 44.1953C141.694 44.1953 140.549 43.7168 139.696 42.7598C138.849 41.7962 138.426 40.4811 138.426 38.8144V38.5117C138.426 37.4831 138.615 36.5683 138.993 35.7676C139.37 34.9668 139.911 34.345 140.614 33.9023C141.323 33.4596 142.16 33.2383 143.124 33.2383C144.308 33.2383 145.292 33.5931 146.073 34.3027C146.861 35.0124 147.28 35.9336 147.333 37.0664H145.624C145.571 36.3828 145.311 35.8229 144.842 35.3867C144.38 34.944 143.807 34.7226 143.124 34.7226C142.206 34.7226 141.493 35.0547 140.985 35.7187C140.484 36.3763 140.233 37.3301 140.233 38.5801V38.9219C140.233 40.1393 140.484 41.0768 140.985 41.7344C141.486 42.3919 142.202 42.7207 143.133 42.7207ZM148.885 38.6191C148.885 37.584 149.087 36.653 149.491 35.8262C149.901 34.9993 150.467 34.3613 151.19 33.9121C151.919 33.4629 152.749 33.2383 153.68 33.2383C155.119 33.2383 156.281 33.7363 157.167 34.7324C158.058 35.7285 158.504 37.0534 158.504 38.707V38.834C158.504 39.8626 158.306 40.7871 157.909 41.6074C157.518 42.4212 156.955 43.056 156.219 43.5117C155.49 43.9674 154.65 44.1953 153.7 44.1953C152.267 44.1953 151.105 43.6973 150.213 42.7012C149.328 41.7051 148.885 40.3867 148.885 38.7461V38.6191ZM150.702 38.834C150.702 40.0058 150.972 40.9466 151.512 41.6562C152.059 42.3659 152.788 42.7207 153.7 42.7207C154.618 42.7207 155.347 42.3626 155.887 41.6465C156.428 40.9238 156.698 39.9147 156.698 38.6191C156.698 37.4603 156.421 36.5228 155.868 35.8066C155.321 35.084 154.592 34.7226 153.68 34.7226C152.788 34.7226 152.069 35.0775 151.522 35.7871C150.975 36.4967 150.702 37.5124 150.702 38.834ZM162.733 44H160.926V33.4336H162.733V44ZM160.78 30.6308C160.78 30.3379 160.868 30.0905 161.043 29.8887C161.226 29.6868 161.493 29.5859 161.844 29.5859C162.196 29.5859 162.463 29.6868 162.645 29.8887C162.827 30.0905 162.918 30.3379 162.918 30.6308C162.918 30.9238 162.827 31.168 162.645 31.3633C162.463 31.5586 162.196 31.6562 161.844 31.6562C161.493 31.6562 161.226 31.5586 161.043 31.3633C160.868 31.168 160.78 30.9238 160.78 30.6308ZM167.342 33.4336L167.401 34.7617C168.208 33.7461 169.263 33.2383 170.565 33.2383C172.798 33.2383 173.924 34.498 173.944 37.0176V44H172.137V37.0078C172.131 36.2461 171.955 35.6829 171.61 35.3183C171.271 34.9538 170.741 34.7715 170.018 34.7715C169.432 34.7715 168.918 34.9277 168.475 35.2402C168.032 35.5527 167.687 35.9629 167.44 36.4707V44H165.633V33.4336H167.342ZM182.821 41.1973C182.821 40.709 182.635 40.3314 182.264 40.0644C181.9 39.791 181.258 39.5566 180.34 39.3613C179.429 39.166 178.703 38.9316 178.163 38.6582C177.629 38.3848 177.232 38.0592 176.971 37.6816C176.717 37.304 176.59 36.8548 176.59 36.334C176.59 35.4681 176.955 34.7357 177.684 34.1367C178.42 33.5377 179.357 33.2383 180.497 33.2383C181.694 33.2383 182.665 33.5475 183.407 34.166C184.155 34.7845 184.53 35.5755 184.53 36.539H182.713C182.713 36.0443 182.502 35.6178 182.079 35.2598C181.662 34.9017 181.135 34.7226 180.497 34.7226C179.839 34.7226 179.325 34.8659 178.954 35.1523C178.583 35.4388 178.397 35.8131 178.397 36.2754C178.397 36.7116 178.569 37.0403 178.915 37.2617C179.26 37.4831 179.881 37.6946 180.78 37.8965C181.685 38.0983 182.417 38.3392 182.977 38.6191C183.537 38.8991 183.95 39.2376 184.217 39.6348C184.491 40.0254 184.627 40.5039 184.627 41.0703C184.627 42.0143 184.25 42.7728 183.495 43.3457C182.739 43.9121 181.76 44.1953 180.555 44.1953C179.709 44.1953 178.96 44.0456 178.309 43.7461C177.658 43.4466 177.147 43.0299 176.776 42.4961C176.411 41.9557 176.229 41.373 176.229 40.748H178.036C178.068 41.3535 178.309 41.8353 178.758 42.1933C179.214 42.5449 179.813 42.7207 180.555 42.7207C181.239 42.7207 181.786 42.584 182.196 42.3105C182.612 42.0306 182.821 41.6595 182.821 41.1973Z" fill="white"/>
<g clip-path="url(#clip0_0_1)">
<path d="M191.535 17.8446C186.86 19.5645 182.664 22.7564 183.689 25.5278C184.714 28.2991 189.984 28.0082 194.659 26.2882C199.335 24.5679 203.53 21.3764 202.505 18.605C201.48 15.8336 196.211 16.1243 191.535 17.8446ZM190.28 28.8989L191.322 31.7135C192.589 31.5658 193.94 31.264 195.273 30.8365L194.231 28.0219C192.945 28.4391 191.622 28.7328 190.28 28.8989V28.8989ZM196.113 27.3287L197.154 30.1433C198.404 29.6286 199.601 28.9949 200.729 28.2512L199.688 25.4366C198.56 26.1804 197.363 26.814 196.113 27.3287V27.3287ZM201.348 24.1439L202.389 26.9585C203.821 25.6267 204.567 24.1778 204.067 22.8269L203.026 20.0123C203.525 21.3633 202.78 22.8122 201.348 24.1439ZM189.218 31.8044L188.176 28.9898C186.221 28.9045 184.709 28.2851 184.21 26.935L185.251 29.7496C185.75 31.0996 187.262 31.7191 189.218 31.8044Z" fill="#FFC226"/>
</g>
<rect width="238" height="56" rx="28" fill="#506FE0"/>
<path d="M206.588 30.8333C210.907 30.8333 215.279 29.3448 215.279 26.5C215.279 23.6552 210.907 22.1667 206.588 22.1667C202.268 22.1667 197.897 23.6552 197.897 26.5C197.897 29.3448 202.268 30.8333 206.588 30.8333Z" fill="#FFC226"/>
<path d="M197.897 30.8333C197.897 33.6782 202.268 35.1667 206.588 35.1667C210.907 35.1667 215.279 33.6782 215.279 30.8333V28.6667C215.279 31.5115 210.907 33 206.588 33C202.268 33 197.897 31.5115 197.897 28.6667V30.8333Z" fill="#FFC226"/>
<path d="M197.897 35.1667C197.897 38.0115 202.268 39.5 206.588 39.5C210.907 39.5 215.279 38.0115 215.279 35.1667V33C215.279 35.8448 210.907 37.3333 206.588 37.3333C202.268 37.3333 197.897 35.8448 197.897 33V35.1667Z" fill="#FFC226"/>
<path d="M197.897 39.5C197.897 42.3448 202.268 43.8333 206.588 43.8333C210.907 43.8333 215.279 42.3448 215.279 39.5V37.3333C215.279 40.1782 210.907 41.6667 206.588 41.6667C202.268 41.6667 197.897 40.1782 197.897 37.3333V39.5Z" fill="#FFC226"/>
<path d="M42.7149 34.384C42.9069 34.7893 43.0029 35.184 43.0029 35.568C43.0029 36.272 42.7149 36.8693 42.1389 37.36C41.5842 37.8507 40.9442 38.096 40.2189 38.096C39.7282 38.096 39.2802 37.968 38.8749 37.712C38.4696 37.456 38.1496 37.072 37.9149 36.56L36.4749 33.328H26.1069L24.6349 36.56C24.4002 37.072 24.0696 37.456 23.6429 37.712C23.2376 37.968 22.7896 38.096 22.2989 38.096C21.5736 38.096 20.9122 37.8507 20.3149 37.36C19.7389 36.8693 19.4509 36.272 19.4509 35.568C19.4509 35.184 19.5469 34.7893 19.7389 34.384L28.1869 17.04C28.4642 16.464 28.8696 16.0267 29.4029 15.728C29.9576 15.408 30.5656 15.248 31.2269 15.248C31.8669 15.248 32.4642 15.408 33.0189 15.728C33.5736 16.0267 33.9896 16.464 34.2669 17.04L42.7149 34.384ZM28.0909 28.912H34.4909L31.2909 21.776L28.0909 28.912ZM67.0586 34.384C67.2506 34.7893 67.3466 35.184 67.3466 35.568C67.3466 36.272 67.0586 36.8693 66.4826 37.36C65.928 37.8507 65.288 38.096 64.5626 38.096C64.072 38.096 63.624 37.968 63.2186 37.712C62.8133 37.456 62.4933 37.072 62.2586 36.56L60.8186 33.328H50.4506L48.9786 36.56C48.744 37.072 48.4133 37.456 47.9866 37.712C47.5813 37.968 47.1333 38.096 46.6426 38.096C45.9173 38.096 45.256 37.8507 44.6586 37.36C44.0826 36.8693 43.7946 36.272 43.7946 35.568C43.7946 35.184 43.8906 34.7893 44.0826 34.384L52.5306 17.04C52.808 16.464 53.2133 16.0267 53.7466 15.728C54.3013 15.408 54.9093 15.248 55.5706 15.248C56.2106 15.248 56.808 15.408 57.3626 15.728C57.9173 16.0267 58.3333 16.464 58.6106 17.04L67.0586 34.384ZM52.4346 28.912H58.8346L55.6346 21.776L52.4346 28.912ZM72.7144 38.192C71.8184 38.192 71.1037 37.936 70.5704 37.424C70.0584 36.8907 69.8024 36.176 69.8024 35.28V18.16C69.8024 17.2853 70.0371 16.6133 70.5064 16.144C70.9757 15.6747 71.6477 15.44 72.5224 15.44H80.7144C83.2104 15.44 85.1517 16.08 86.5384 17.36C87.9251 18.6187 88.6184 20.3787 88.6184 22.64C88.6184 24.88 87.9144 26.64 86.5064 27.92C85.1197 29.2 83.1891 29.84 80.7144 29.84H75.6904V35.28C75.6904 36.176 75.4237 36.8907 74.8904 37.424C74.3571 37.936 73.6317 38.192 72.7144 38.192ZM79.9144 25.424C81.0024 25.424 81.8024 25.2 82.3144 24.752C82.8477 24.304 83.1144 23.6107 83.1144 22.672C83.1144 20.816 82.0477 19.888 79.9144 19.888H75.6904V25.424H79.9144ZM111.491 15.28C112.301 15.28 112.963 15.5466 113.475 16.08C113.987 16.6133 114.243 17.3067 114.243 18.16V35.568C114.243 36.3787 114.008 37.0187 113.539 37.488C113.069 37.9573 112.451 38.192 111.683 38.192C110.936 38.192 110.317 37.9573 109.827 37.488C109.357 37.0187 109.123 36.3787 109.123 35.568V26.16L105.475 32.88C105.112 33.5627 104.728 34.0533 104.323 34.352C103.917 34.6293 103.437 34.768 102.883 34.768C102.328 34.768 101.848 34.6293 101.443 34.352C101.037 34.0533 100.653 33.5627 100.291 32.88L96.6746 26.352V35.568C96.6746 36.3573 96.4293 36.9973 95.9386 37.488C95.4693 37.9573 94.8506 38.192 94.0826 38.192C93.336 38.192 92.7173 37.9573 92.2266 37.488C91.7573 37.0187 91.5226 36.3787 91.5226 35.568V18.16C91.5226 17.3067 91.7786 16.6133 92.2906 16.08C92.824 15.5466 93.496 15.28 94.3066 15.28C94.8826 15.28 95.4053 15.4507 95.8746 15.792C96.344 16.112 96.7386 16.5813 97.0586 17.2L102.947 28.272L108.803 17.2C109.464 15.92 110.36 15.28 111.491 15.28ZM129.864 42.2187H128.286V15.25H129.864V42.2187ZM143.133 36.7207C143.778 36.7207 144.341 36.5254 144.823 36.1348C145.305 35.7441 145.571 35.2558 145.624 34.6699H147.333C147.3 35.2754 147.092 35.8515 146.708 36.3984C146.323 36.9453 145.809 37.3815 145.165 37.707C144.527 38.0325 143.849 38.1953 143.133 38.1953C141.694 38.1953 140.549 37.7168 139.696 36.7598C138.849 35.7962 138.426 34.4811 138.426 32.8144V32.5117C138.426 31.4831 138.615 30.5683 138.993 29.7676C139.37 28.9668 139.911 28.345 140.614 27.9023C141.323 27.4596 142.16 27.2383 143.124 27.2383C144.308 27.2383 145.292 27.5931 146.073 28.3027C146.861 29.0124 147.28 29.9336 147.333 31.0664H145.624C145.571 30.3828 145.311 29.8229 144.842 29.3867C144.38 28.944 143.807 28.7226 143.124 28.7226C142.206 28.7226 141.493 29.0547 140.985 29.7187C140.484 30.3763 140.233 31.3301 140.233 32.5801V32.9219C140.233 34.1393 140.484 35.0768 140.985 35.7344C141.486 36.3919 142.202 36.7207 143.133 36.7207ZM148.885 32.6191C148.885 31.584 149.087 30.653 149.491 29.8262C149.901 28.9993 150.467 28.3613 151.19 27.9121C151.919 27.4629 152.749 27.2383 153.68 27.2383C155.119 27.2383 156.281 27.7363 157.167 28.7324C158.058 29.7285 158.504 31.0534 158.504 32.707V32.834C158.504 33.8626 158.306 34.7871 157.909 35.6074C157.518 36.4212 156.955 37.056 156.219 37.5117C155.49 37.9674 154.65 38.1953 153.7 38.1953C152.267 38.1953 151.105 37.6973 150.213 36.7012C149.328 35.7051 148.885 34.3867 148.885 32.7461V32.6191ZM150.702 32.834C150.702 34.0058 150.972 34.9466 151.512 35.6562C152.059 36.3659 152.788 36.7207 153.7 36.7207C154.618 36.7207 155.347 36.3626 155.887 35.6465C156.428 34.9238 156.698 33.9147 156.698 32.6191C156.698 31.4603 156.421 30.5228 155.868 29.8066C155.321 29.084 154.592 28.7226 153.68 28.7226C152.788 28.7226 152.069 29.0775 151.522 29.7871C150.975 30.4967 150.702 31.5124 150.702 32.834ZM162.733 38H160.926V27.4336H162.733V38ZM160.78 24.6308C160.78 24.3379 160.868 24.0905 161.043 23.8887C161.226 23.6868 161.493 23.5859 161.844 23.5859C162.196 23.5859 162.463 23.6868 162.645 23.8887C162.827 24.0905 162.918 24.3379 162.918 24.6308C162.918 24.9238 162.827 25.168 162.645 25.3633C162.463 25.5586 162.196 25.6562 161.844 25.6562C161.493 25.6562 161.226 25.5586 161.043 25.3633C160.868 25.168 160.78 24.9238 160.78 24.6308ZM167.342 27.4336L167.401 28.7617C168.208 27.7461 169.263 27.2383 170.565 27.2383C172.798 27.2383 173.924 28.498 173.944 31.0176V38H172.137V31.0078C172.131 30.2461 171.955 29.6829 171.61 29.3183C171.271 28.9538 170.741 28.7715 170.018 28.7715C169.432 28.7715 168.918 28.9277 168.475 29.2402C168.032 29.5527 167.687 29.9629 167.44 30.4707V38H165.633V27.4336H167.342ZM182.821 35.1973C182.821 34.709 182.635 34.3314 182.264 34.0644C181.9 33.791 181.258 33.5566 180.34 33.3613C179.429 33.166 178.703 32.9316 178.163 32.6582C177.629 32.3848 177.232 32.0592 176.971 31.6816C176.717 31.304 176.59 30.8548 176.59 30.334C176.59 29.4681 176.955 28.7357 177.684 28.1367C178.42 27.5377 179.357 27.2383 180.497 27.2383C181.694 27.2383 182.665 27.5475 183.407 28.166C184.155 28.7845 184.53 29.5755 184.53 30.539H182.713C182.713 30.0443 182.502 29.6178 182.079 29.2598C181.662 28.9017 181.135 28.7226 180.497 28.7226C179.839 28.7226 179.325 28.8659 178.954 29.1523C178.583 29.4388 178.397 29.8131 178.397 30.2754C178.397 30.7116 178.569 31.0403 178.915 31.2617C179.26 31.4831 179.881 31.6946 180.78 31.8965C181.685 32.0983 182.417 32.3392 182.977 32.6191C183.537 32.8991 183.95 33.2376 184.217 33.6348C184.491 34.0254 184.627 34.5039 184.627 35.0703C184.627 36.0143 184.25 36.7728 183.495 37.3457C182.739 37.9121 181.76 38.1953 180.555 38.1953C179.709 38.1953 178.96 38.0456 178.309 37.7461C177.658 37.4466 177.147 37.0299 176.776 36.4961C176.411 35.9557 176.229 35.373 176.229 34.748H178.036C178.068 35.3535 178.309 35.8353 178.758 36.1933C179.214 36.5449 179.813 36.7207 180.555 36.7207C181.239 36.7207 181.786 36.584 182.196 36.3105C182.612 36.0306 182.821 35.6595 182.821 35.1973Z" fill="white"/>
<g clip-path="url(#clip1_0_1)">
<path d="M191.535 11.8446C186.86 13.5645 182.664 16.7564 183.689 19.5278C184.714 22.2991 189.984 22.0082 194.659 20.2882C199.335 18.5679 203.53 15.3764 202.505 12.605C201.48 9.83363 196.211 10.1243 191.535 11.8446ZM190.28 22.8989L191.322 25.7135C192.589 25.5658 193.94 25.264 195.273 24.8365L194.231 22.0219C192.945 22.4391 191.622 22.7328 190.28 22.8989V22.8989ZM196.113 21.3287L197.154 24.1433C198.404 23.6286 199.601 22.9949 200.729 22.2512L199.688 19.4366C198.56 20.1804 197.363 20.814 196.113 21.3287V21.3287ZM201.348 18.1439L202.389 20.9585C203.821 19.6267 204.567 18.1778 204.067 16.8269L203.026 14.0123C203.525 15.3633 202.78 16.8122 201.348 18.1439ZM189.218 25.8044L188.176 22.9898C186.221 22.9045 184.709 22.2851 184.21 20.935L185.251 23.7496C185.75 25.0996 187.262 25.7191 189.218 25.8044Z" fill="#FFC226"/>
</g>
<defs>
<clipPath id="clip0_0_1">
<path d="M181.98 26.686C180.063 21.5063 182.712 15.7614 187.895 13.8544L201.089 9.00001L209.419 31.5164L186.84 39.8237L181.98 26.686Z" fill="white"/>
</clipPath>
<clipPath id="clip1_0_1">
<path d="M181.98 20.686C180.063 15.5063 182.712 9.76137 187.895 7.85438L201.089 3.00001L209.419 25.5164L186.84 33.8237L181.98 20.686Z" fill="white"/>
</clipPath>
</defs>
</svg>
