<svg width="30" height="30" viewBox="0 0 30 30" fill="none" xmlns="http://www.w3.org/2000/svg">
<path d="M3.66683 26.3333H6.50016V12.1667C6.50016 11.7909 6.64942 11.4306 6.9151 11.1649C7.18077 10.8993 7.54111 10.75 7.91683 10.75H24.9168V7.91667C24.9168 7.54095 24.7676 7.18061 24.5019 6.91493C24.2362 6.64926 23.8759 6.5 23.5002 6.5H19.1779C18.8209 3.321 16.1477 0.833336 12.8752 0.833336C9.60266 0.833336 6.92941 3.321 6.57241 6.5H2.25016C1.87444 6.5 1.5141 6.64926 1.24843 6.91493C0.982752 7.18061 0.833496 7.54095 0.833496 7.91667V23.5C0.833496 24.2514 1.13201 24.9721 1.66336 25.5035C2.19471 26.0348 2.91538 26.3333 3.66683 26.3333ZM12.8752 3.66667C14.5851 3.66667 16.0173 4.885 16.346 6.5H9.40433C9.733 4.885 11.1652 3.66667 12.8752 3.66667Z" fill="white"/>
<path d="M27.7502 13.5833H10.7502C10.3744 13.5833 10.0141 13.7326 9.74843 13.9983C9.48275 14.2639 9.3335 14.6243 9.3335 15V26.3333C9.3335 27.0848 9.63201 27.8055 10.1634 28.3368C10.6947 28.8682 11.4154 29.1667 12.1668 29.1667H26.3335C27.0849 29.1667 27.8056 28.8682 28.337 28.3368C28.8683 27.8055 29.1668 27.0848 29.1668 26.3333V15C29.1668 14.6243 29.0176 14.2639 28.7519 13.9983C28.4862 13.7326 28.1259 13.5833 27.7502 13.5833ZM19.2502 23.5C15.3444 23.5 12.1668 20.3224 12.1668 16.4167H15.0002C15.0002 18.7598 16.907 20.6667 19.2502 20.6667C21.5933 20.6667 23.5002 18.7598 23.5002 16.4167H26.3335C26.3335 20.3224 23.1559 23.5 19.2502 23.5Z" fill="white"/>
</svg>
