<svg  xmlns="http://www.w3.org/2000/svg" viewBox="0 0 1440 320">
  <path fill="#5C7AEA" fill-opacity="1" d="M0,224L30,234.7C60,245,120,267,180,277.3C240,288,300,288,360,266.7C420,245,480,203,540,192C600,181,660,203,720,202.7C780,203,840,181,900,154.7C960,128,1020,96,1080,74.7C1140,53,1200,43,1260,53.3C1320,64,1380,96,1410,112L1440,128L1440,0L1410,0C1380,0,1320,0,1260,0C1200,0,1140,0,1080,0C1020,0,960,0,900,0C840,0,780,0,720,0C660,0,600,0,540,0C480,0,420,0,360,0C300,0,240,0,180,0C120,0,60,0,30,0L0,0Z"></path>
</svg>